HIERARCHY
ROOT reference
{
  OFFSET 0 0 0
  CHANNELS 6 Xposition Yposition Zposition Zrotation Xrotation Yrotation
  JOINT Hips
  {
    OFFSET -19.7903 89.6696 85.8443
    CHANNELS 6 Xposition Yposition Zposition Zrotation Xrotation Yrotation
    JOINT Spine
    {
      OFFSET 0 7.57377 0
      CHANNELS 6 Xposition Yposition Zposition Zrotation Xrotation Yrotation
      JOINT Spine1
      {
        OFFSET 0 21.6353 0
        CHANNELS 6 Xposition Yposition Zposition Zrotation Xrotation Yrotation
        JOINT Neck
        {
          OFFSET 0 21.5464 1.95876
          CHANNELS 6 Xposition Yposition Zposition Zrotation Xrotation Yrotation
          JOINT Head
          {
            OFFSET 0 12.9308 -1.84726
            CHANNELS 6 Xposition Yposition Zposition Zrotation Xrotation Yrotation
            End Site
            {
              OFFSET 0 23.0907 0
            }
          }
        }
        JOINT LeftShoulder
        {
          OFFSET 3.70822 19.5981 -0.368577
          CHANNELS 6 Xposition Yposition Zposition Zrotation Xrotation Yrotation
          JOINT LeftArm
          {
            OFFSET 11.1726 0 0
            CHANNELS 6 Xposition Yposition Zposition Zrotation Xrotation Yrotation
            JOINT LeftForeArm
            {
              OFFSET 28.6421 0 0
              CHANNELS 6 Xposition Yposition Zposition Zrotation Xrotation Yrotation
              JOINT LeftHand
              {
                OFFSET 23.9346 0 0
                CHANNELS 6 Xposition Yposition Zposition Zrotation Xrotation Yrotation
                End Site
                {
                  OFFSET 13.8545 0 0
                }
              }
            }
          }
        }
        JOINT RightShoulder
        {
          OFFSET -3.63664 19.5981 -0.368577
          CHANNELS 6 Xposition Yposition Zposition Zrotation Xrotation Yrotation
          JOINT RightArm
          {
            OFFSET -11.1726 0 0
            CHANNELS 6 Xposition Yposition Zposition Zrotation Xrotation Yrotation
            JOINT RightForeArm
            {
              OFFSET -28.6421 0 0
              CHANNELS 6 Xposition Yposition Zposition Zrotation Xrotation Yrotation
              JOINT RightHand
              {
                OFFSET -23.9346 0 0
                CHANNELS 6 Xposition Yposition Zposition Zrotation Xrotation Yrotation
                End Site
                {
                  OFFSET -13.8545 0 0
                }
              }
            }
          }
        }
      }
    }
    JOINT LeftUpLeg
    {
      OFFSET 9.2363 0 0
      CHANNELS 6 Xposition Yposition Zposition Zrotation Xrotation Yrotation
      JOINT LeftLeg
      {
        OFFSET 0 -40.7061 0
        CHANNELS 6 Xposition Yposition Zposition Zrotation Xrotation Yrotation
        JOINT LeftFoot
        {
          OFFSET 0 -40.9975 0
          CHANNELS 6 Xposition Yposition Zposition Zrotation Xrotation Yrotation
          JOINT LeftToeBase
          {
            OFFSET 0 -6.00359 13.8545
            CHANNELS 6 Xposition Yposition Zposition Zrotation Xrotation Yrotation
            End Site
            {
              OFFSET 0 0 3.69452
            }
          }
        }
      }
    }
    JOINT RightUpLeg
    {
      OFFSET -9.2363 0 0
      CHANNELS 6 Xposition Yposition Zposition Zrotation Xrotation Yrotation
      JOINT RightLeg
      {
        OFFSET 0 -40.7061 0
        CHANNELS 6 Xposition Yposition Zposition Zrotation Xrotation Yrotation
        JOINT RightFoot
        {
          OFFSET 0 -40.9975 0
          CHANNELS 6 Xposition Yposition Zposition Zrotation Xrotation Yrotation
          JOINT RightToeBase
          {
            OFFSET 0 -6.00359 13.8545
            CHANNELS 6 Xposition Yposition Zposition Zrotation Xrotation Yrotation
            End Site
            {
              OFFSET 0 0 3.69452
            }
          }
        }
      }
    }
  }
}
MOTION
Frames:	6
Frame Time:	0.004
0 0 0 0 0 -0 -47.8996 82.3726 -91.1566 -4.50722 1.71126 3.86569 0 7.57377 0 7.82375 7.01244 0.738277 0 21.6353 1.42109e-014 -3.36983 -10.6801 0.90337 0 21.5464 1.95876 -5.15425 -11.8041 -3.29922 7.10543e-015 12.9308 -1.84726 1.09692 23.067 -2.203 3.70822 19.5981 -0.368577 20.6298 -8.16559 2.21612 11.1726 -2.84217e-014 0 -24.4141 -10.444 -4.8071 28.6421 0 0 20.5944 -55.6706 2.34798 23.9346 0 -1.42109e-014 65.5262 -35.8512 42.4865 -3.63664 19.5981 -0.368577 -17.2327 1.32753 -8.84445 -11.1726 1.42109e-014 0 8.08685 -17.0227 0.907419 -28.6421 -2.84217e-014 0 -15.5319 -42.6493 -1.66044 -23.9346 -1.42109e-014 7.10543e-015 -66.73 -30.9372 -22.2275 9.2363 0 0 -11.3716 -5.57363 -2.33106 0 -40.7061 -1.42109e-014 11.9613 32.5883 -12.6459 0 -40.9975 0 3.10095 -11.7568 -5.7798 1.42109e-014 -6.00359 13.8545 1.59028e-015 0 -0 -9.2363 0 0 -27.8105 -41.421 -18.4204 2.84217e-014 -40.7061 7.10543e-015 16.7432 70.8172 -2.64713 -1.42109e-014 -40.9975 0 6.42837 -1.86852 -8.06526 -2.84217e-014 -6.00359 13.8545 -0 -6.36111e-015 -0 
0 0 0 0 0 -0 -47.9395 82.7037 -90.6241 -4.54635 1.90635 4.21551 0 7.57377 0 7.6933 6.7217 0.655909 -7.10543e-015 21.6353 -1.42109e-014 -2.99943 -10.6458 0.828997 0 21.5464 1.95876 -5.06202 -11.7908 -3.12539 0 12.9308 -1.84726 0.898057 23.0831 -2.03335 3.70822 19.5981 -0.368577 20.5165 -8.22471 1.99139 11.1726 0 0 -24.175 -11.1415 -5.05525 28.6421 -2.84217e-014 -1.42109e-014 19.9956 -55.0279 2.36485 23.9346 0 2.84217e-014 64.3582 -36.2285 41.2755 -3.63664 19.5981 -0.368577 -16.5892 2.01595 -8.69205 -11.1726 -1.42109e-014 -1.42109e-014 8.98012 -17.5052 0.545187 -28.6421 0 7.10543e-015 -15.8686 -42.8895 -2.77364 -23.9346 1.42109e-014 -7.10543e-015 -65.357 -31.2436 -22.9934 9.2363 0 0 -11.3181 -5.62842 -2.44964 7.10543e-015 -40.7061 1.42109e-014 12.117 32.6856 -12.4609 0 -40.9975 0 2.63744 -10.0878 -6.29738 0 -6.00359 13.8545 1.59028e-015 -6.36111e-015 -3.18055e-015 -9.2363 -1.42109e-014 -1.42109e-014 -27.6633 -40.8241 -18.3287 0 -40.7061 3.55271e-015 15.3032 68.076 -0.350009 0 -40.9975 1.42109e-014 7.31386 -1.45556 -8.57457 0 -6.00359 13.8545 -7.95139e-016 0 -1.59028e-015 
0 0 0 0 0 -0 -47.9774 83.0299 -90.0919 -4.57741 2.06167 4.59324 0 7.57377 0 7.5679 6.45949 0.559833 7.10543e-015 21.6353 0 -2.66049 -10.59 0.740997 7.10543e-015 21.5464 1.95876 -4.91885 -11.8417 -2.97312 -7.10543e-015 12.9308 -1.84726 0.631462 23.1885 -1.89253 3.70822 19.5981 -0.368577 20.5614 -7.95352 1.8739 11.1726 -2.84217e-014 0 -24.1618 -12.2618 -5.57581 28.6421 0 0 19.5919 -54.2749 2.44351 23.9346 0 1.42109e-014 62.7782 -36.6542 39.9697 -3.63664 19.5981 -0.368577 -15.821 2.39396 -8.32684 -11.1726 0 1.42109e-014 9.6294 -17.4147 -0.173971 -28.6421 0 -7.10543e-015 -16.1999 -43.4754 -3.80777 -23.9346 1.42109e-014 2.13163e-014 -64.5259 -31.6808 -24.0201 9.2363 -1.42109e-014 0 -11.2743 -5.70872 -2.56511 0 -40.7061 1.42109e-014 12.4236 32.8153 -12.9829 0 -40.9975 1.42109e-014 1.99144 -8.33823 -6.66543 0 -6.00359 13.8545 -2.38542e-015 3.18055e-015 -0 -9.2363 -1.42109e-014 0 -27.4757 -40.1129 -18.2086 0 -40.7061 -7.10543e-015 14.1 65.2881 1.38977 1.42109e-014 -40.9975 0 7.62791 -1.2757 -8.83633 0 -6.00359 13.8545 7.95139e-016 0 -3.18055e-015 
0 0 0 0 0 -0 -48.0162 83.3488 -89.555 -4.63023 2.12439 5.01913 0 7.57377 1.42109e-014 7.4873 6.25282 0.435111 -7.10543e-015 21.6353 0 -2.37855 -10.4931 0.626369 0 21.5464 1.95876 -4.55164 -11.7561 -2.72458 7.10543e-015 12.9308 -1.84726 0.159503 23.0478 -1.69958 3.70822 19.5981 -0.368577 20.6415 -8.27919 1.56726 11.1726 -2.84217e-014 -1.42109e-014 -23.9679 -12.6704 -5.58431 28.6421 0 0 19.1914 -53.7718 2.42633 23.9346 0 0 61.6422 -36.9814 38.9994 -3.63664 19.5981 -0.368577 -15.1252 2.52162 -7.90327 -11.1726 0 -1.42109e-014 10.4112 -16.7548 -0.993858 -28.6421 0 -1.42109e-014 -16.7637 -44.2773 -4.75084 -23.9346 -1.42109e-014 0 -64.0802 -32.1101 -25.3663 9.2363 0 1.42109e-014 -11.1974 -5.71579 -2.62067 7.10543e-015 -40.7061 0 12.658 33.0162 -12.9272 0 -40.9975 -1.42109e-014 1.22345 -6.5383 -7.21211 -1.42109e-014 -6.00359 13.8545 1.59028e-015 -3.18055e-015 7.95139e-015 -9.2363 0 0 -27.2391 -39.237 -17.9705 0 -40.7061 7.10543e-015 13.3544 62.4587 2.41973 0 -40.9975 0 8.34029 -0.973821 -9.08289 0 -6.00359 13.8545 1.19271e-015 -6.36111e-015 1.59028e-015 
0 0 0 0 0 -0 -48.0644 83.6805 -89.0109 -4.68792 2.23257 5.41558 0 7.57377 -1.42109e-014 7.34772 6.06151 0.342587 -7.10543e-015 21.6353 0 -1.95469 -10.4859 0.552855 0 21.5464 1.95876 -4.31213 -11.708 -2.48793 -7.10543e-015 12.9308 -1.84726 -0.263988 23.0526 -1.48863 3.70822 19.5981 -0.368577 20.6641 -8.09502 1.39416 11.1726 -2.84217e-014 1.42109e-014 -23.8757 -13.6867 -6.03609 28.6421 0 0 18.7299 -53.1464 2.35572 23.9346 0 0 60.4609 -37.2368 37.8214 -3.63664 19.5981 -0.368577 -14.5041 3.16114 -7.64833 -11.1726 1.42109e-014 0 11.4003 -17.3432 -1.46671 -28.6421 -2.84217e-014 7.10543e-015 -17.1553 -44.7038 -5.59163 -23.9346 1.42109e-014 0 -63.6968 -32.2556 -26.4026 9.2363 0 -1.42109e-014 -11.0911 -5.85209 -2.61227 -7.10543e-015 -40.7061 0 12.8273 33.3565 -12.2876 0 -40.9975 0 0.532188 -4.64965 -8.09403 0 -6.00359 13.8545 -3.18055e-015 3.18055e-015 -1.59028e-015 -9.2363 1.42109e-014 0 -26.9154 -38.372 -17.6814 0 -40.7061 -1.42109e-014 12.5749 59.478 3.05926 -1.42109e-014 -40.9975 0 9.27899 -0.455422 -9.21445 0 -6.00359 13.8545 3.97569e-016 0 -0 
0 0 0 0 0 -0 -48.1144 83.9873 -88.4871 -4.7441 2.33671 5.85221 7.10543e-015 7.57377 -1.42109e-014 7.19094 5.85249 0.266529 -7.10543e-015 21.6353 0 -1.46386 -10.4998 0.500233 -7.10543e-015 21.5464 1.95876 -4.36352 -11.5015 -2.37757 0 12.9308 -1.84726 -0.414082 22.9387 -1.35959 3.70822 19.5981 -0.368577 20.5474 -8.18918 0.892629 11.1726 0 0 -23.5119 -14.0823 -6.0252 28.6421 0 1.42109e-014 18.4443 -52.6875 2.46383 23.9346 1.42109e-014 -2.84217e-014 59.2649 -37.5398 36.9659 -3.63664 19.5981 -0.368577 -14.7034 2.70835 -6.85744 -11.1726 1.42109e-014 0 13.021 -16.0292 -2.93869 -28.6421 2.84217e-014 0 -17.8336 -45.4914 -6.1492 -23.9346 0 1.42109e-014 -63.8698 -32.2948 -28.0812 9.2363 -1.42109e-014 1.42109e-014 -11.012 -6.08715 -2.35366 0 -40.7061 0 13.3462 33.7551 -12.718 0 -40.9975 1.42109e-014 -0.275138 -2.68263 -8.5749 0 -6.00359 13.8545 -1.59028e-015 0 -1.59028e-015 -9.2363 -1.42109e-014 0 -26.5944 -37.5007 -17.426 2.84217e-014 -40.7061 -1.06581e-014 11.8161 56.6901 4.22195 1.42109e-014 -40.9975 1.42109e-014 9.71589 -0.154238 -9.82964 1.42109e-014 -6.00359 13.8545 0 0 -0 
